<svg width="210" height="210" viewBox="0 0 210 210" fill="none" xmlns="http://www.w3.org/2000/svg">
<mask id="mask0" mask-type="alpha" maskUnits="userSpaceOnUse" x="0" y="0" width="210" height="210">
<path d="M105 210C162.99 210 210 162.99 210 105C210 47.0101 162.99 0 105 0C47.0101 0 0 47.0101 0 105C0 162.99 47.0101 210 105 210Z" fill="black"/>
</mask>
<g mask="url(#mask0)">
<path d="M105 210C162.99 210 210 162.99 210 105C210 47.0101 162.99 0 105 0C47.0101 0 0 47.0101 0 105C0 162.99 47.0101 210 105 210Z" fill="#A3AFC1"/>
<path d="M228 119.949C228 119.949 216.607 140.168 207.5 134.5C188.384 122.603 154.5 102.5 120.5 98C71.3288 91.492 18 23 18 23V181H228V119.949Z" fill="black"/>
<path d="M215 141.811C215 141.811 161.97 91.4432 107.092 97.8918C52.2143 104.34 0 24 0 24V216H215V141.811Z" fill="#2D2D2D"/>
<path d="M201 146.311C201 146.311 179 106.311 98.5 129.811C18 153.311 0 114 0 114V306H215L201 146.311Z" fill="#646464"/>
<path d="M191.031 145.6L151.665 144.222L130.906 146.181L95.4383 149.528L82.0914 150.787L51.1814 160.986C51.0573 161.027 50.924 161.033 50.797 161.002C50.67 160.971 50.5545 160.905 50.4639 160.811C50.3732 160.718 50.3112 160.601 50.2849 160.474C50.2586 160.348 50.2692 160.216 50.3154 160.095L50.3177 160.093L55.6784 146.064L55.1142 145.653L40.3627 134.928L40.2837 134.87L21.156 131.985C20.8867 131.944 20.6323 131.836 20.417 131.671C20.2016 131.506 20.0322 131.29 19.9249 131.042C19.8176 130.794 19.7758 130.523 19.8036 130.255C19.8313 129.987 19.9276 129.73 20.0834 129.509L49.215 88.1472L64.5237 66.4165L66.1837 64.0574L129.866 63.1868L192.041 143.666C192.181 143.847 192.266 144.064 192.286 144.292C192.306 144.519 192.261 144.747 192.155 144.95C192.049 145.152 191.887 145.321 191.688 145.436C191.489 145.552 191.261 145.608 191.031 145.6Z" fill="white"/>
<path opacity="0.2" d="M81.1011 67.4141L55.1136 145.653L40.3637 134.928L49.2156 88.1478L64.4797 66.3647L64.5231 66.4155L81.1011 67.4141Z" fill="black"/>
<path d="M57.904 97.3862C54.9553 104.4 53.9113 110.259 50.4137 109.201C45.6252 107.752 50.6529 102.629 53.6017 95.6155C56.5504 88.6015 58.6339 83.2213 61.092 83.801C65.6747 84.8819 60.8527 90.3723 57.904 97.3862Z" fill="#3F3D56"/>
<path d="M64.5849 83.3468C64.5842 82.8826 64.491 82.4231 64.3108 81.9945C64.1305 81.5659 63.8668 81.1767 63.5345 80.849C63.2022 80.5213 62.808 80.2615 62.3743 80.0846C61.9406 79.9076 61.4759 79.817 61.0067 79.8177C60.9261 79.8178 60.8464 79.8216 60.7672 79.8269L57.396 79.4154C57.0091 79.2789 56.6014 79.2097 56.1907 79.2106C56.0773 79.2108 55.9653 79.2168 55.8546 79.2272L55.7247 79.2114L55.7212 79.2427C54.9301 79.3478 54.1973 79.712 53.6398 80.2773C53.0822 80.8426 52.7321 81.5763 52.6452 82.3614C52.5583 83.1466 52.7397 83.9379 53.1604 84.6091C53.5811 85.2804 54.2169 85.7929 54.9664 86.0648L54.9593 86.1284L55.291 86.1652C55.5885 86.2421 55.8947 86.2807 56.2022 86.2801C56.2363 86.2801 56.27 86.2784 56.3038 86.2774L59.7501 86.6594C60.1553 86.8109 60.585 86.8882 61.0182 86.8872C61.1797 86.8866 61.341 86.8754 61.501 86.8534L61.7948 86.886L61.7966 86.8008C62.5889 86.6243 63.2968 86.186 63.8037 85.5581C64.3105 84.9303 64.5861 84.1503 64.5849 83.3468Z" fill="#7D7777"/>
<path opacity="0.2" d="M64.5849 83.3468C64.5842 82.8826 64.491 82.4231 64.3108 81.9945C64.1305 81.5659 63.8668 81.1767 63.5345 80.849C63.2022 80.5213 62.808 80.2615 62.3743 80.0846C61.9406 79.9076 61.4759 79.817 61.0067 79.8177C60.9261 79.8178 60.8464 79.8216 60.7672 79.8269L57.396 79.4154C57.0091 79.2789 56.6014 79.2097 56.1907 79.2106C56.0773 79.2108 55.9653 79.2168 55.8546 79.2272L55.7247 79.2114L55.7212 79.2427C54.9301 79.3478 54.1973 79.712 53.6398 80.2773C53.0822 80.8426 52.7321 81.5763 52.6452 82.3614C52.5583 83.1466 52.7397 83.9379 53.1604 84.6091C53.5811 85.2804 54.2169 85.7929 54.9664 86.0648L54.9593 86.1284L55.291 86.1652C55.5885 86.2421 55.8947 86.2807 56.2022 86.2801C56.2363 86.2801 56.27 86.2784 56.3038 86.2774L59.7501 86.6594C60.1553 86.8109 60.585 86.8882 61.0182 86.8872C61.1797 86.8866 61.341 86.8754 61.501 86.8534L61.7948 86.886L61.7966 86.8008C62.5889 86.6243 63.2968 86.186 63.8037 85.5581C64.3105 84.9303 64.5861 84.1503 64.5849 83.3468Z" fill="white"/>
<path d="M16.8744 131.633L16.4618 131.419C27.0309 111.487 56.924 68.9007 57.2247 68.4728L57.6074 68.7361C57.3068 69.1637 27.43 111.727 16.8744 131.633Z" fill="#3F3D56"/>
<path d="M49.2489 161.504L48.7994 161.383C49.0172 160.591 70.6657 82.0198 78.1821 68.7657L78.5884 68.9912C71.1 82.1963 49.4667 160.712 49.2489 161.504Z" fill="#3F3D56"/>
<path d="M193.873 146.271C182.332 127.459 138.747 69.1989 138.308 68.6126L138.682 68.3382C139.121 68.9246 182.719 127.202 194.271 146.032L193.873 146.271Z" fill="#3F3D56"/>
<path d="M48.4101 163.595C49.3108 163.594 50.0394 162.664 50.0376 161.518C50.0357 160.372 49.304 159.444 48.4033 159.446C47.5026 159.447 46.7739 160.377 46.7758 161.523C46.7777 162.669 47.5093 163.597 48.4101 163.595Z" fill="#3F3D56"/>
<path d="M16.9804 132.525C17.8811 132.523 18.6098 131.593 18.6079 130.447C18.6061 129.302 17.8744 128.374 16.9737 128.375C16.073 128.377 15.3443 129.307 15.3461 130.453C15.348 131.598 16.0797 132.526 16.9804 132.525Z" fill="#3F3D56"/>
<path d="M194.305 147.306C195.206 147.305 195.934 146.375 195.933 145.229C195.931 144.083 195.199 143.155 194.298 143.157C193.398 143.158 192.669 144.088 192.671 145.234C192.673 146.38 193.404 147.308 194.305 147.306Z" fill="#3F3D56"/>
<path d="M55.4135 70.7612L143.315 71.6932C143.254 64.5899 140.358 57.7982 135.259 52.7979C130.159 47.7976 123.269 44.9937 116.09 44.9973L82.5437 45.0507C68.5121 45.073 56.631 55.9302 55.4952 69.7682L55.4135 70.7612Z" fill="#3F3D56"/>
<path opacity="0.2" d="M132.647 99.511H100.52C100.129 99.5106 99.742 99.5872 99.381 99.7362C99.02 99.8852 98.692 100.104 98.417 100.379C98.142 100.654 97.925 100.981 97.779 101.34C97.633 101.699 97.56 102.083 97.565 102.47L97.593 104.794L97.878 129.681L97.883 130.161L97.892 130.954L97.902 131.728L97.955 136.393C97.964 137.153 98.27 137.879 98.81 138.418C99.35 138.958 100.081 139.269 100.848 139.286C100.927 139.286 101.008 139.283 101.089 139.279L108.718 138.819L119.755 138.153L123.651 137.919L124.519 137.866L130.59 137.501H130.592L132.826 137.365C133.577 137.319 134.282 136.991 134.798 136.449C135.314 135.907 135.601 135.19 135.602 134.445V102.435C135.601 101.66 135.29 100.917 134.736 100.368C134.182 99.8202 133.43 99.5118 132.647 99.511Z" fill="black"/>
<path d="M139.263 95.4463C139.146 95.4554 139.034 95.4899 138.933 95.5473C138.831 95.6047 138.744 95.6834 138.678 95.778L135.138 95.7837V94.8548C135.137 94.0795 134.825 93.3362 134.271 92.7879C133.717 92.2397 132.966 91.9314 132.182 91.9305H100.056C99.665 91.9302 99.278 92.0067 98.917 92.1557C98.555 92.3047 98.228 92.5232 97.953 92.7984C97.678 93.0737 97.461 93.4003 97.315 93.7592C97.168 94.1181 97.096 94.5022 97.101 94.8892L97.112 95.8442L94.8291 95.8478C94.704 95.716 94.5322 95.6372 94.3496 95.628C93.5495 95.6293 92.9036 97.3583 92.9071 99.4898C92.9106 101.621 93.562 103.348 94.3622 103.347C94.5016 103.332 94.6353 103.284 94.752 103.207C94.8687 103.13 94.965 103.026 95.0328 102.905L138.689 102.835C138.756 102.93 138.844 103.008 138.945 103.065C139.046 103.122 139.159 103.156 139.275 103.165C140.075 103.164 140.721 101.435 140.718 99.3034C140.714 97.1719 140.063 95.445 139.263 95.4463Z" fill="#7D7777"/>
<path opacity="0.2" d="M139.263 95.4463C139.146 95.4554 139.034 95.4899 138.933 95.5473C138.831 95.6047 138.744 95.6834 138.678 95.778L135.138 95.7837V94.8548C135.137 94.0795 134.825 93.3362 134.271 92.7879C133.717 92.2397 132.966 91.9314 132.183 91.9305H100.056C99.665 91.9302 99.278 92.0067 98.917 92.1557C98.555 92.3047 98.228 92.5232 97.953 92.7984C97.678 93.0737 97.461 93.4003 97.315 93.7592C97.168 94.1181 97.096 94.5022 97.101 94.8892L97.112 95.8442L94.8291 95.8478C94.704 95.716 94.5321 95.6372 94.3496 95.628C93.5495 95.6293 92.9036 97.3583 92.9071 99.4898C92.9105 101.621 93.562 103.348 94.3622 103.347C94.5016 103.332 94.6353 103.284 94.752 103.207C94.8687 103.13 94.965 103.026 95.0328 102.905L138.689 102.835C138.756 102.93 138.844 103.008 138.945 103.065C139.046 103.122 139.159 103.156 139.275 103.165C140.075 103.164 140.721 101.435 140.718 99.3034C140.714 97.1719 140.063 95.445 139.263 95.4463Z" fill="white"/>
<path d="M143.211 163.605C143.169 163.222 142.985 162.867 142.693 162.612C142.402 162.356 142.024 162.217 141.634 162.223C141.279 162.22 140.934 162.336 140.653 162.551C140.373 162.766 140.174 163.068 140.088 163.409L138.541 170.841C138.49 171.058 138.463 171.281 138.462 171.504C138.462 173.18 139.879 174.344 141.634 174.344C143.389 174.344 144.808 173.18 144.808 171.504C144.807 171.235 144.77 170.968 144.698 170.709L143.211 163.605Z" fill="#3F3D56"/>
<path d="M154.911 166.929C154.754 166.793 154.585 166.67 154.406 166.563L148.496 162.477C147.921 162.12 147.306 162.13 146.86 162.562C146.666 162.745 146.542 162.99 146.511 163.254C146.48 163.518 146.543 163.785 146.69 164.008L151.152 169.81C151.254 169.951 151.368 170.083 151.492 170.205C152.266 171.06 153.981 171.107 154.923 170.205C155.853 169.287 155.842 167.652 154.911 166.929Z" fill="#3F3D56"/>
<path d="M159.352 160.876H153.367C153.175 160.869 152.988 160.937 152.847 161.066C152.706 161.194 152.621 161.373 152.612 161.562C152.609 161.737 152.666 161.908 152.772 162.048C152.879 162.188 153.03 162.288 153.2 162.333L158.846 164.061C159.666 164.25 160.771 163.527 160.771 162.624C160.771 161.475 160.125 160.876 159.352 160.876Z" fill="#3F3D56"/>
<path d="M130.874 161.559C130.868 161.462 130.842 161.366 130.798 161.279C130.754 161.191 130.693 161.113 130.618 161.049C130.543 160.985 130.456 160.937 130.362 160.906C130.268 160.876 130.169 160.865 130.071 160.873H124.086C123.332 160.873 122.696 161.679 122.696 162.582C122.696 163.485 123.769 164.25 124.591 164.061L130.322 162.333C130.494 162.293 130.645 162.193 130.747 162.05C130.849 161.907 130.894 161.733 130.874 161.559Z" fill="#3F3D56"/>
<path d="M134.981 162.484L129.07 166.553C128.887 166.655 128.716 166.777 128.56 166.918C128.126 167.318 127.87 167.873 127.848 168.459C127.827 169.046 128.042 169.618 128.446 170.048C128.483 170.087 128.521 170.124 128.56 170.161C129.024 170.594 129.638 170.836 130.276 170.836C130.913 170.836 131.527 170.594 131.991 170.161C132.117 170.041 132.231 169.909 132.331 169.767L136.796 163.998C136.945 163.778 137.011 163.513 136.979 163.249C136.948 162.986 136.823 162.743 136.626 162.563C136.405 162.36 136.119 162.24 135.818 162.226C135.517 162.211 135.221 162.303 134.981 162.484Z" fill="#3F3D56"/>
<path d="M144.176 154.533C144.244 154.434 144.282 154.316 144.285 154.196C144.285 153.483 142.867 152.988 141.112 152.988C139.357 152.988 137.939 153.483 137.939 154.196C137.942 154.294 137.969 154.391 138.018 154.477L139.565 157.636C139.742 157.934 140.381 158.142 141.112 158.14C141.936 158.14 142.62 157.882 142.689 157.552L144.176 154.533Z" fill="#3F3D56"/>
<path d="M154.401 154.748C153.458 154.364 151.743 154.384 150.97 154.748C150.853 154.796 150.739 154.852 150.63 154.915L146.168 157.381C145.865 157.577 145.936 157.835 146.338 157.996C146.866 158.177 147.438 158.19 147.974 158.032L153.883 156.295C154.054 156.252 154.223 156.2 154.389 156.14C155.32 155.832 155.331 155.138 154.401 154.748Z" fill="#3F3D56"/>
<path d="M160.249 157.97C160.249 157.586 159.144 157.278 158.324 157.359L152.678 158.093C152.341 158.14 152.09 158.249 152.09 158.421C152.09 158.592 152.458 158.712 152.845 158.712H158.83C159.603 158.712 160.249 158.458 160.249 157.97Z" fill="#3F3D56"/>
<path d="M129.8 158.093L124.069 157.359C123.246 157.278 122.174 157.604 122.174 157.987C122.174 158.371 122.81 158.714 123.563 158.714H129.548C129.965 158.714 130.352 158.601 130.352 158.422C130.352 158.243 130.173 158.14 129.8 158.093Z" fill="#3F3D56"/>
<path d="M136.104 157.995C136.522 157.832 136.571 157.585 136.274 157.386L131.808 154.934C131.7 154.869 131.586 154.813 131.468 154.766C130.358 154.384 129.149 154.384 128.038 154.766C127.999 154.782 127.96 154.798 127.924 154.815C127.082 155.195 127.133 155.79 128.038 156.144C128.204 156.208 128.375 156.26 128.548 156.3L134.459 158.029C134.997 158.187 135.572 158.175 136.104 157.995Z" fill="#3F3D56"/>
<path d="M153.284 154.022C153.284 163.156 148.14 163.325 141.793 163.325C135.446 163.325 125.027 161.518 130.302 154.022C135.865 146.116 145.409 131.046 141.793 130.248C141.793 130.248 153.284 144.888 153.284 154.022Z" fill="#F9A825"/>
<path opacity="0.5" d="M145.84 159.643C145.84 163.258 143.804 163.325 141.291 163.325C138.779 163.325 134.655 162.61 136.743 159.643C138.945 156.513 142.723 150.548 141.291 150.232C141.291 150.232 145.84 156.027 145.84 159.643Z" fill="#FF6584"/>
<path d="M135.602 132.812V134.445C135.601 135.19 135.314 135.907 134.798 136.449C134.282 136.991 133.577 137.319 132.826 137.365L101.089 139.279C100.689 139.303 100.289 139.246 99.912 139.113C99.535 138.979 99.19 138.771 98.897 138.501C98.603 138.231 98.369 137.905 98.207 137.543C98.045 137.181 97.959 136.79 97.955 136.393L97.878 129.681L117.076 129.373L135.602 132.812Z" fill="#3F3D56"/>
</g>
</svg>
